<svg xmlns="http://www.w3.org/2000/svg" viewBox="0 0 339.66 66.00" role="img">
<title>Dataset Foundry</title>
<g transform="translate(10,10.00)">
  <rect x="8" y="6" width="40" height="10" rx="2" fill="#e8734a"/>
  <rect x="20" y="20" width="16" height="10" rx="2" fill="#c9a227"/>
  <rect x="4" y="34" width="48" height="14" rx="2" fill="#e8734a"/>
</g>
<path d="M47 0V96H141V604H47V700H327Q467 700 541.5 629.0Q616 558 616 415V284Q616 141 541.5 70.5Q467 0 327 0ZM250 98H328Q419 98 463.0 144.0Q507 190 507 281V419Q507 511 463.0 556.0Q419 601 328 601H250Z" transform="translate(86.00,45.50) translate(0.00,0) scale(0.030000,-0.030000)" fill="#f2ede4"/>
<path d="M229 -14Q176 -14 134.5 4.0Q93 22 68.5 57.0Q44 92 44 142Q44 193 68.5 226.5Q93 260 135.5 277.0Q178 294 232 294H382V326Q382 369 356.0 395.0Q330 421 276 421Q223 421 195.0 396.0Q167 371 158 331L62 362Q74 402 100.5 434.5Q127 467 171.0 487.0Q215 507 277 507Q373 507 428.0 458.0Q483 409 483 319V116Q483 86 511 86H553V0H476Q441 0 419.0 18.0Q397 36 397 67V70H382Q374 55 358.0 35.0Q342 15 311.0 0.5Q280 -14 229 -14ZM244 71Q306 71 344.0 106.5Q382 142 382 204V214H238Q197 214 172.0 196.5Q147 179 147 145Q147 111 173.0 91.0Q199 71 244 71Z" transform="translate(86.00,45.50) translate(19.95,0) scale(0.030000,-0.030000)" fill="#f2ede4"/>
<path d="M261 0Q216 0 189.5 27.0Q163 54 163 99V406H27V493H163V656H266V493H413V406H266V117Q266 87 294 87H397V0Z" transform="translate(86.00,45.50) translate(37.26,0) scale(0.030000,-0.030000)" fill="#f2ede4"/>
<path d="M229 -14Q176 -14 134.5 4.0Q93 22 68.5 57.0Q44 92 44 142Q44 193 68.5 226.5Q93 260 135.5 277.0Q178 294 232 294H382V326Q382 369 356.0 395.0Q330 421 276 421Q223 421 195.0 396.0Q167 371 158 331L62 362Q74 402 100.5 434.5Q127 467 171.0 487.0Q215 507 277 507Q373 507 428.0 458.0Q483 409 483 319V116Q483 86 511 86H553V0H476Q441 0 419.0 18.0Q397 36 397 67V70H382Q374 55 358.0 35.0Q342 15 311.0 0.5Q280 -14 229 -14ZM244 71Q306 71 344.0 106.5Q382 142 382 204V214H238Q197 214 172.0 196.5Q147 179 147 145Q147 111 173.0 91.0Q199 71 244 71Z" transform="translate(86.00,45.50) translate(51.00,0) scale(0.030000,-0.030000)" fill="#f2ede4"/>
<path d="M278 -14Q184 -14 122.0 28.0Q60 70 46 155L142 178Q150 137 169.0 113.0Q188 89 216.5 79.0Q245 69 278 69Q327 69 353.5 88.0Q380 107 380 137Q380 167 355.0 181.0Q330 195 281 204L247 210Q197 219 156.0 236.0Q115 253 91.0 283.0Q67 313 67 360Q67 430 119.0 468.5Q171 507 257 507Q340 507 393.5 469.5Q447 432 463 368L367 341Q358 386 329.0 404.5Q300 423 257 423Q215 423 191.0 407.5Q167 392 167 364Q167 334 190.5 320.0Q214 306 254 299L289 293Q342 284 386.0 268.0Q430 252 455.5 222.0Q481 192 481 142Q481 68 426.0 27.0Q371 -14 278 -14Z" transform="translate(86.00,45.50) translate(68.31,0) scale(0.030000,-0.030000)" fill="#f2ede4"/>
<path d="M302 -14Q227 -14 171.0 17.5Q115 49 83.5 106.5Q52 164 52 240V252Q52 329 83.0 386.5Q114 444 169.5 475.5Q225 507 298 507Q369 507 422.5 475.5Q476 444 506.0 388.0Q536 332 536 257V218H157Q159 153 200.5 114.5Q242 76 304 76Q362 76 391.5 102.0Q421 128 437 162L522 118Q508 90 481.5 59.0Q455 28 412.0 7.0Q369 -14 302 -14ZM158 297H431Q427 353 391.0 384.5Q355 416 297 416Q239 416 202.5 384.5Q166 353 158 297Z" transform="translate(86.00,45.50) translate(84.06,0) scale(0.030000,-0.030000)" fill="#f2ede4"/>
<path d="M261 0Q216 0 189.5 27.0Q163 54 163 99V406H27V493H163V656H266V493H413V406H266V117Q266 87 294 87H397V0Z" transform="translate(86.00,45.50) translate(101.58,0) scale(0.030000,-0.030000)" fill="#f2ede4"/>
<path d="M69 0V700H505V591H190V406H480V296H190V0Z" transform="translate(86.00,45.50) translate(122.97,0) scale(0.030000,-0.030000)" fill="#e8734a"/>
<path d="M307 -14Q233 -14 174.5 16.5Q116 47 82.5 103.5Q49 160 49 239V255Q49 334 82.5 391.0Q116 448 174.5 478.0Q233 508 307 508Q381 508 439.0 478.0Q497 448 530.5 391.0Q564 334 564 255V239Q564 160 530.5 103.5Q497 47 439.0 16.5Q381 -14 307 -14ZM307 88Q370 88 410.0 128.5Q450 169 450 242V252Q450 325 410.0 365.5Q370 406 307 406Q244 406 204.0 365.5Q164 325 164 252V242Q164 169 204.0 128.5Q244 88 307 88Z" transform="translate(86.00,45.50) translate(139.02,0) scale(0.030000,-0.030000)" fill="#e8734a"/>
<path d="M262 -8Q205 -8 161.0 17.5Q117 43 93.0 89.5Q69 136 69 198V494H183V207Q183 147 212.5 118.0Q242 89 296 89Q357 89 392.5 129.0Q428 169 428 244V494H542V0H430V69H413Q400 42 365.5 17.0Q331 -8 262 -8Z" transform="translate(86.00,45.50) translate(157.41,0) scale(0.030000,-0.030000)" fill="#e8734a"/>
<path d="M73 0V494H186V425H203Q216 453 250.0 478.0Q284 503 353 503Q410 503 454.0 477.0Q498 451 522.5 405.0Q547 359 547 296V0H432V287Q432 347 402.5 376.5Q373 406 319 406Q258 406 223.0 365.5Q188 325 188 250V0Z" transform="translate(86.00,45.50) translate(175.86,0) scale(0.030000,-0.030000)" fill="#e8734a"/>
<path d="M275 -14Q215 -14 163.0 15.5Q111 45 80.0 102.0Q49 159 49 239V255Q49 335 80.0 392.0Q111 449 162.5 478.5Q214 508 275 508Q321 508 353.0 497.0Q385 486 404.5 469.0Q424 452 435 432H452V700H566V0H454V65H437Q419 35 382.0 10.5Q345 -14 275 -14ZM309 86Q371 86 412.0 126.5Q453 167 453 242V252Q453 328 412.5 368.0Q372 408 309 408Q247 408 205.5 368.0Q164 328 164 252V242Q164 167 205.5 126.5Q247 86 309 86Z" transform="translate(86.00,45.50) translate(194.31,0) scale(0.030000,-0.030000)" fill="#e8734a"/>
<path d="M73 0V494H186V437H203Q214 468 240.0 482.0Q266 496 302 496H362V394H300Q250 394 219.0 367.5Q188 341 188 286V0Z" transform="translate(86.00,45.50) translate(213.48,0) scale(0.030000,-0.030000)" fill="#e8734a"/>
<path d="M128 -200V-100H401Q429 -100 429 -70V68H412Q404 50 386.0 32.5Q368 15 338.0 3.5Q308 -8 262 -8Q205 -8 161.0 17.5Q117 43 93.0 89.5Q69 136 69 198V494H183V207Q183 147 212.5 118.0Q242 89 296 89Q357 89 392.5 129.0Q428 169 428 244V494H542V-94Q542 -143 514.0 -171.5Q486 -200 438 -200Z" transform="translate(86.00,45.50) translate(225.21,0) scale(0.030000,-0.030000)" fill="#e8734a"/>
</svg>